<svg width="100" height="100" viewBox="0 0 100 100" xmlns="http://www.w3.org/2000/svg">
  <defs>
    <pattern id="dna-pattern" width="100" height="100" patternUnits="userSpaceOnUse">
      <!-- Double helix backbone 1 -->
      <path d="M10,0 Q30,25 10,50 Q30,75 10,100" fill="none" stroke="#4361ee" stroke-width="0.8" stroke-opacity="0.3"/>
      <!-- Double helix backbone 2 -->
      <path d="M90,0 Q70,25 90,50 Q70,75 90,100" fill="none" stroke="#4361ee" stroke-width="0.8" stroke-opacity="0.3"/>
      
      <!-- Base pairs connecting the strands -->
      <line x1="10" y1="10" x2="90" y2="10" stroke="#3a86ff" stroke-width="0.5" stroke-opacity="0.4"/>
      <line x1="10" y1="30" x2="90" y2="30" stroke="#ff0a54" stroke-width="0.5" stroke-opacity="0.4"/>
      <line x1="10" y1="50" x2="90" y2="50" stroke="#3a86ff" stroke-width="0.5" stroke-opacity="0.4"/>
      <line x1="10" y1="70" x2="90" y2="70" stroke="#ff0a54" stroke-width="0.5" stroke-opacity="0.4"/>
      <line x1="10" y1="90" x2="90" y2="90" stroke="#3a86ff" stroke-width="0.5" stroke-opacity="0.4"/>
      
      <!-- Base pair dots -->
      <circle cx="10" cy="10" r="2" fill="#3a86ff" fill-opacity="0.5"/>
      <circle cx="90" cy="10" r="2" fill="#3a86ff" fill-opacity="0.5"/>
      
      <circle cx="10" cy="30" r="2" fill="#ff0a54" fill-opacity="0.5"/>
      <circle cx="90" cy="30" r="2" fill="#ff0a54" fill-opacity="0.5"/>
      
      <circle cx="10" cy="50" r="2" fill="#3a86ff" fill-opacity="0.5"/>
      <circle cx="90" cy="50" r="2" fill="#3a86ff" fill-opacity="0.5"/>
      
      <circle cx="10" cy="70" r="2" fill="#ff0a54" fill-opacity="0.5"/>
      <circle cx="90" cy="70" r="2" fill="#ff0a54" fill-opacity="0.5"/>
      
      <circle cx="10" cy="90" r="2" fill="#3a86ff" fill-opacity="0.5"/>
      <circle cx="90" cy="90" r="2" fill="#3a86ff" fill-opacity="0.5"/>
    </pattern>
  </defs>
  <rect width="100%" height="100%" fill="url(#dna-pattern)" />
</svg> 